<svg width="15" height="26" viewBox="0 0 15 26" fill="blue" xmlns="http://www.w3.org/2000/svg">
<path d="M7.67331 11.6398C4.56704 10.8325 3.5681 9.99777 3.5681 8.69778C3.5681 7.20622 4.95019 6.16624 7.26279 6.16624C9.20592 6.16624 10.1775 6.90518 10.5333 8.082C10.6975 8.62936 11.1491 9.03988 11.7238 9.03988H12.1343C13.0374 9.03988 13.6806 8.15042 13.3659 7.30201C12.7911 5.6873 11.4501 4.34626 9.31539 3.82627V2.88207C9.31539 1.7463 8.39856 0.829468 7.26279 0.829468C6.12702 0.829468 5.21019 1.7463 5.21019 2.88207V3.78522C2.55548 4.35995 0.420776 6.08414 0.420776 8.72515C0.420776 11.8862 3.03443 13.4598 6.85227 14.3767C10.2733 15.1977 10.9575 16.4019 10.9575 17.6745C10.9575 18.6187 10.287 20.1239 7.26279 20.1239C5.00493 20.1239 3.84178 19.3166 3.39021 18.1671C3.18495 17.6335 2.71969 17.2503 2.15865 17.2503H1.77549C0.858665 17.2503 0.215516 18.1808 0.557617 19.0292C1.33761 20.9313 3.15758 22.0534 5.21019 22.4913V23.4081C5.21019 24.5439 6.12702 25.4607 7.26279 25.4607C8.39856 25.4607 9.31539 24.5439 9.31539 23.4081V22.5187C11.9838 22.0123 14.1048 20.466 14.1048 17.6608C14.1048 13.7746 10.7796 12.4472 7.67331 11.6398Z" fill="blue"/>
</svg>
